<?xml version="1.0" encoding="utf-8"?>
<!-- Generator: Adobe Illustrator 22.0.1, SVG Export Plug-In . SVG Version: 6.00 Build 0)  -->
<svg version="1.1" id="Layer_1" xmlns="http://www.w3.org/2000/svg" xmlns:xlink="http://www.w3.org/1999/xlink" x="0px" y="0px"
	 viewBox="0 0 1025.7 101.9" style="enable-background:new 0 0 1025.7 101.9;" xml:space="preserve">
<style type="text/css">
	.st0{fill:#23392F;}
	.st1{fill:#FFFFFF;}
</style>
<g>
	<rect x="0.1" y="1.8" class="st0" width="1024" height="100"/>
</g>
<g>
	<path class="st1" d="M202.4,34.2l5.8,10.4c0.3-1.3,1.2-6-1-10c-2.5-4.6-8.1-6.5-8.1-6.5s-1.6,5.7,0.9,10.3c2.2,4.1,6.8,6,7.9,6.4
		L202.4,34.2z"/>
	<path class="st1" d="M216.4,28.6l-7.9,17.1c1.6-0.7,8.1-3.8,10.9-9.8c3.3-6.9,0.6-15.1,0.6-15.1s-8,3-11.3,9.9
		c-2.8,6-1.2,12.8-0.7,14.6L216.4,28.6z"/>
</g>
<g>
	<path class="st1" d="M34.2,60.4c-0.1,0-0.2,0.1-0.4,0.2c-0.2,0.1-0.5,0.2-0.8,0.4c-0.3,0.1-0.7,0.3-1.2,0.4
		c-0.4,0.1-0.9,0.2-1.5,0.2c-1,0-1.8-0.3-2.6-0.9c-0.7-0.6-1.1-1.4-1.1-2.4V42.7h-2.8v-1.1h2.8v-6.8H28v6.8h4.7v1.1H28V58
		c0.1,0.7,0.3,1.3,0.8,1.7s1.1,0.6,1.7,0.6c0.4,0,0.8,0,1.2-0.1s0.7-0.2,1-0.3s0.5-0.2,0.7-0.3s0.3-0.2,0.3-0.2L34.2,60.4z"/>
	<path class="st1" d="M45.4,61.7c-1.3,0-2.6-0.3-3.8-0.8s-2.2-1.3-3.1-2.2c-0.9-0.9-1.6-2.1-2.1-3.3s-0.7-2.6-0.7-4s0.2-2.7,0.7-3.9
		s1.2-2.3,2-3.2c0.9-0.9,1.9-1.6,3-2.2c1.1-0.5,2.4-0.8,3.7-0.8c1.4,0,2.6,0.3,3.8,0.8s2.2,1.3,3,2.2c0.9,0.9,1.5,2,2,3.2
		s0.7,2.6,0.7,4c0,0.1,0,0.2,0,0.3c0,0.2,0,0.2,0,0.3H37.1c0.1,1.2,0.4,2.4,0.9,3.4c0.5,1.1,1.1,2,1.8,2.7c0.7,0.8,1.6,1.4,2.6,1.8
		c1,0.4,2,0.7,3.1,0.7c0.7,0,1.4-0.1,2.1-0.3c0.7-0.2,1.3-0.5,2-0.8c0.6-0.4,1.1-0.8,1.6-1.3s0.8-1,1.1-1.6l1.2,0.3
		c-0.3,0.7-0.7,1.3-1.2,1.9c-0.5,0.6-1.2,1.1-1.9,1.5s-1.5,0.7-2.3,1C47.1,61.5,46.3,61.7,45.4,61.7z M53.6,50.9
		c-0.1-1.2-0.3-2.4-0.8-3.4s-1.1-1.9-1.8-2.7s-1.6-1.3-2.6-1.8c-1-0.4-2-0.6-3.1-0.6s-2.2,0.2-3.1,0.6c-1,0.4-1.8,1-2.5,1.8
		s-1.3,1.7-1.7,2.7s-0.7,2.2-0.8,3.4H53.6z"/>
	<path class="st1" d="M64,61.7c-0.9,0-1.8-0.2-2.5-0.5c-0.8-0.3-1.5-0.7-2.1-1.3c-0.6-0.5-1-1.2-1.4-1.9c-0.3-0.7-0.5-1.5-0.5-2.4
		c0-0.8,0.2-1.6,0.6-2.3c0.4-0.7,1-1.3,1.7-1.8s1.6-0.9,2.6-1.2s2.1-0.4,3.3-0.4c1.1,0,2.2,0.1,3.4,0.3c1.1,0.2,2.1,0.4,3.1,0.8
		v-2.1c0-2-0.6-3.6-1.7-4.7c-1.1-1.2-2.6-1.8-4.5-1.8c-1,0-2,0.2-3.1,0.6c-1.1,0.4-2.2,1-3.3,1.8l-0.6-1c2.5-1.7,4.9-2.6,7-2.6
		c2.3,0,4.1,0.7,5.5,2.1c1.3,1.4,2,3.2,2,5.6v10.3c0,0.6,0.2,0.8,0.7,0.8v1.2c-0.1,0-0.1,0-0.2,0s-0.1,0-0.2,0
		c-0.4,0-0.8-0.2-1.1-0.5c-0.3-0.3-0.4-0.7-0.4-1.2v-1.7c-0.9,1.2-2.1,2.1-3.5,2.8S65.6,61.7,64,61.7z M64.1,60.5
		c0.9,0,1.9-0.1,2.8-0.4c0.9-0.3,1.8-0.6,2.6-1c0.8-0.4,1.4-1,1.9-1.5c0.5-0.6,0.7-1.2,0.7-1.9V52c-2-0.8-4.1-1.1-6.3-1.1
		c-1,0-2,0.1-2.9,0.3s-1.6,0.5-2.2,0.9c-0.6,0.4-1.1,0.9-1.4,1.5c-0.3,0.6-0.5,1.2-0.5,1.9s0.1,1.4,0.4,2c0.3,0.6,0.7,1.1,1.1,1.6
		c0.5,0.5,1,0.8,1.7,1.1C62.7,60.4,63.4,60.5,64.1,60.5z"/>
	<path class="st1" d="M87.8,51.3c0-1.4,0.2-2.7,0.7-4c0.5-1.2,1.2-2.3,2-3.2c0.9-0.9,1.9-1.6,3.1-2.1s2.5-0.8,3.8-0.8
		c1.7,0,3.3,0.4,4.6,1.2c1.3,0.8,2.3,1.9,3,3.3l-1.3,0.5c-0.6-1.2-1.5-2.1-2.7-2.7c-1.1-0.7-2.4-1-3.8-1c-1.1,0-2.2,0.2-3.2,0.7
		s-1.9,1.1-2.6,1.9c-0.7,0.8-1.3,1.7-1.7,2.8c-0.4,1.1-0.6,2.3-0.6,3.5s0.2,2.4,0.7,3.5c0.4,1.1,1,2.1,1.8,2.9
		c0.7,0.8,1.6,1.5,2.6,2s2.1,0.7,3.2,0.7c0.7,0,1.5-0.1,2.2-0.3s1.4-0.5,2-0.9s1.1-0.8,1.6-1.2c0.4-0.5,0.7-1,0.9-1.5l1.3,0.4
		c-0.2,0.7-0.6,1.3-1.1,1.9c-0.5,0.6-1.1,1.1-1.8,1.5c-0.7,0.4-1.5,0.7-2.3,1c-0.8,0.2-1.7,0.4-2.6,0.4c-1.3,0-2.6-0.3-3.8-0.8
		c-1.2-0.5-2.2-1.3-3.1-2.2s-1.6-2-2.1-3.3C88,54.1,87.8,52.7,87.8,51.3z"/>
	<path class="st1" d="M117.7,61.7c-1.3,0-2.6-0.3-3.8-0.8c-1.2-0.5-2.2-1.3-3.1-2.2s-1.6-2.1-2.1-3.3s-0.7-2.6-0.7-4
		s0.2-2.7,0.7-3.9s1.2-2.3,2-3.2c0.9-0.9,1.9-1.6,3-2.2c1.1-0.5,2.4-0.8,3.7-0.8c1.4,0,2.6,0.3,3.8,0.8c1.2,0.5,2.2,1.3,3,2.2
		c0.9,0.9,1.5,2,2,3.2s0.7,2.6,0.7,4c0,0.1,0,0.2,0,0.3c0,0.2,0,0.2,0,0.3h-17.7c0.1,1.2,0.4,2.4,0.9,3.4c0.5,1.1,1.1,2,1.8,2.7
		c0.7,0.8,1.6,1.4,2.6,1.8c1,0.4,2,0.7,3.1,0.7c0.7,0,1.4-0.1,2.1-0.3s1.3-0.5,2-0.8c0.6-0.4,1.1-0.8,1.6-1.3s0.8-1,1.1-1.6l1.2,0.3
		c-0.3,0.7-0.7,1.3-1.2,1.9c-0.5,0.6-1.2,1.1-1.9,1.5c-0.7,0.4-1.5,0.7-2.3,1C119.5,61.5,118.6,61.7,117.7,61.7z M125.9,50.9
		c-0.1-1.2-0.3-2.4-0.8-3.4s-1.1-1.9-1.8-2.7c-0.7-0.8-1.6-1.3-2.6-1.8c-1-0.4-2-0.6-3.1-0.6s-2.2,0.2-3.1,0.6c-1,0.4-1.8,1-2.5,1.8
		s-1.3,1.7-1.7,2.7c-0.4,1-0.7,2.2-0.8,3.4H125.9z"/>
	<path class="st1" d="M147.3,61.3H146v-11c0-2.7-0.4-4.7-1.2-5.9c-0.8-1.3-2-1.9-3.7-1.9c-0.9,0-1.8,0.2-2.7,0.5s-1.7,0.8-2.5,1.4
		c-0.7,0.6-1.4,1.3-2,2.1s-1,1.6-1.2,2.6v12.4h-1.3v-20h1.3v4.9c0.4-0.8,0.9-1.5,1.5-2.1s1.3-1.2,2.1-1.7s1.6-0.8,2.4-1.1
		c0.8-0.3,1.7-0.4,2.6-0.4c2.1,0,3.6,0.7,4.5,2.2s1.4,3.7,1.4,6.7L147.3,61.3L147.3,61.3z"/>
	<path class="st1" d="M161.2,60.4c-0.1,0-0.2,0.1-0.4,0.2c-0.2,0.1-0.5,0.2-0.8,0.4c-0.3,0.1-0.7,0.3-1.2,0.4
		c-0.4,0.1-0.9,0.2-1.5,0.2c-1,0-1.8-0.3-2.6-0.9c-0.7-0.6-1.1-1.4-1.1-2.4V42.7h-2.8v-1.1h2.8v-6.8h1.3v6.8h4.7v1.1H155V58
		c0.1,0.7,0.3,1.3,0.8,1.7s1.1,0.6,1.7,0.6c0.4,0,0.8,0,1.2-0.1s0.7-0.2,1-0.3s0.5-0.2,0.7-0.3s0.3-0.2,0.3-0.2L161.2,60.4z"/>
	<path class="st1" d="M173.5,42.7c-1.8,0.1-3.4,0.7-4.8,1.7c-1.3,1.1-2.3,2.5-2.8,4.4v12.4h-1.3V41.5h1.3v5c0.7-1.4,1.6-2.5,2.7-3.4
		c1.1-0.9,2.4-1.4,3.6-1.6c0.3,0,0.5,0,0.7,0s0.4,0,0.5,0v1.2H173.5z"/>
	<path class="st1" d="M184.5,61.7c-1.3,0-2.6-0.3-3.8-0.8s-2.2-1.3-3.1-2.2c-0.9-0.9-1.6-2.1-2.1-3.3s-0.7-2.6-0.7-4
		s0.2-2.7,0.7-3.9s1.2-2.3,2-3.2c0.9-0.9,1.9-1.6,3-2.2c1.1-0.5,2.4-0.8,3.7-0.8c1.4,0,2.6,0.3,3.8,0.8s2.2,1.3,3,2.2
		c0.9,0.9,1.5,2,2,3.2s0.7,2.6,0.7,4c0,0.1,0,0.2,0,0.3c0,0.2,0,0.2,0,0.3H176c0.1,1.2,0.4,2.4,0.9,3.4c0.5,1.1,1.1,2,1.8,2.7
		c0.7,0.8,1.6,1.4,2.6,1.8c1,0.4,2,0.7,3.1,0.7c0.7,0,1.4-0.1,2.1-0.3c0.7-0.2,1.3-0.5,2-0.8c0.6-0.4,1.1-0.8,1.6-1.3s0.8-1,1.1-1.6
		l1.2,0.3c-0.3,0.7-0.7,1.3-1.2,1.9c-0.5,0.6-1.2,1.1-1.9,1.5s-1.5,0.7-2.3,1C186.2,61.5,185.4,61.7,184.5,61.7z M192.6,50.9
		c-0.1-1.2-0.3-2.4-0.8-3.4s-1.1-1.9-1.8-2.7s-1.6-1.3-2.6-1.8c-1-0.4-2-0.6-3.1-0.6s-2.2,0.2-3.1,0.6c-1,0.4-1.8,1-2.5,1.8
		s-1.3,1.7-1.7,2.7s-0.7,2.2-0.8,3.4H192.6z"/>
</g>
</svg>
